<svg xmlns="http://www.w3.org/2000/svg" version="1.1" xmlns:xlink="http://www.w3.org/1999/xlink" xmlns:svgjs="http://svgjs.com/svgjs" width="320" height="320"><defs><radialGradient id="SvgjsRadialGradient1006"><stop stop-color="#55df23" offset="0.1"></stop><stop stop-color="#4422ee" offset="0.5"></stop><stop stop-color="#55df23" offset="0.1"></stop><stop stop-color="#4422ee" offset="0.5"></stop><stop stop-color="#00ffee" offset="0.9"></stop></radialGradient><pattern x="0" y="0" width="10" height="10" patternUnits="userSpaceOnUse" id="SvgjsPattern1007"><rect width="10" height="10" fill="#ff3333"></rect><rect width="10" height="2" x="5" y="5" fill="#ffffff"></rect><rect width="7" height="2" x="0" y="0" fill="#ffffff"></rect></pattern></defs><path d="M160 10C161.8 13.599999999999994 165.6 21.19999999999999 169 28C172.4 34.8 174.4 38.2 177 44C179.6 49.8 178.6 57 182 57C185.4 57 191.2 42.8 194 44C196.8 45.2 192.8 61.8 196 63C199.2 64.2 207.8 47.8 210 50C212.2 52.2 200.6 77.6 207 74C213.4 70.4 238.8 31.599999999999994 242 32C245.2 32.400000000000006 222 70.4 223 76C224 81.6 238.4 64.4 247 60C255.6 55.599999999999994 263.4 51.400000000000006 266 54C268.6 56.599999999999994 262.4 65.8 260 73C257.6 80.2 256.2 84 254 90C251.8 96 246.6 100.6 249 103C251.4 105.4 265 99.2 266 102C267 104.8 252.6 113.8 254 117C255.4 120.2 273 115 273 118C273 121 247 130 254 132C261 134 306 125.4 308 128C310 130.6 267.2 140.4 264 145C260.8 149.6 282.8 148 292 151C301.2 154 310 156.4 310 160C310 163.6 298.8 165.6 292 169C285.2 172.4 281.8 174.4 276 177C270.2 179.6 263 178.6 263 182C263 185.4 277.2 191.2 276 194C274.8 196.8 258.2 192.8 257 196C255.8 199.2 272.2 207.8 270 210C267.8 212.2 242.39999999999998 200.6 246 207C249.6 213.4 288.4 238.8 288 242C287.6 245.2 249.6 222 244 223C238.4 224 255.6 238.4 260 247C264.4 255.6 268.6 263.4 266 266C263.4 268.6 254.2 262.4 247 260C239.8 257.6 236 256.2 230 254C224 251.8 219.4 246.6 217 249C214.6 251.4 220.8 265 218 266C215.2 267 206.2 252.6 203 254C199.8 255.4 205 273 202 273C199 273 190 247 188 254C186 261 194.6 306 192 308C189.4 310 179.6 267.2 175 264C170.4 260.8 172 282.8 169 292C166 301.2 163.6 310 160 310C156.4 310 154.4 298.8 151 292C147.6 285.2 145.6 281.8 143 276C140.4 270.2 141.4 263 138 263C134.6 263 128.8 277.2 126 276C123.2 274.8 127.2 258.2 124 257C120.8 255.8 112.2 272.2 110 270C107.8 267.8 119.4 242.39999999999998 113 246C106.6 249.6 81.2 288.4 78 288C74.8 287.6 98 249.6 97 244C96 238.4 81.6 255.6 73 260C64.4 264.4 56.599999999999994 268.6 54 266C51.400000000000006 263.4 57.599999999999994 254.2 60 247C62.400000000000006 239.8 63.8 236 66 230C68.2 224 73.4 219.4 71 217C68.6 214.6 55 220.8 54 218C53 215.2 67.4 206.2 66 203C64.6 199.8 47 205 47 202C47 199 73 190 66 188C59 186 14 194.6 12 192C10 189.4 52.8 179.6 56 175C59.2 170.4 37.2 172 28 169C18.80000000000001 166 10 163.6 10 160C10 156.4 21.19999999999999 154.4 28 151C34.8 147.6 38.2 145.6 44 143C49.8 140.4 57 141.4 57 138C57 134.6 42.8 128.8 44 126C45.2 123.2 61.8 127.2 63 124C64.2 120.8 47.8 112.2 50 110C52.2 107.8 77.6 119.4 74 113C70.4 106.6 31.599999999999994 81.2 32 78C32.400000000000006 74.8 70.4 98 76 97C81.6 96 64.4 81.6 60 73C55.599999999999994 64.4 51.400000000000006 56.599999999999994 54 54C56.599999999999994 51.400000000000006 65.8 57.599999999999994 73 60C80.2 62.400000000000006 84 63.8 90 66C96 68.2 100.6 73.4 103 71C105.4 68.6 99.2 55 102 54C104.8 53 113.8 67.4 117 66C120.2 64.6 115 47 118 47C121 47 130 73 132 66C134 59 125.4 14 128 12C130.6 10 140.4 52.8 145 56C149.6 59.2 148 37.2 151 28C154 18.80000000000001 158.2 13.599999999999994 160 10 " fill="url(#SvgjsRadialGradient1006)" stroke-linejoin="round" stroke-linecap="round" stroke-width="3" stroke="#ee77ff"></path><ellipse rx="30" ry="30" cx="160" cy="160" fill="#ff5566" stroke-linejoin="round" stroke-linecap="round" stroke-width="3" stroke="#ee77ff"></ellipse><path d="M125 155.76974868774414A35 35 -45 0 1 185 135.76974868774414 " stroke-dasharray="5,3,9" stroke-linejoin="round" stroke-linecap="round" stroke-width="3" stroke="#0000ff" fill="none"></path><path d="M120.17549316585064 163.7428092956543A40 40 -45 0 1 190.17549316585064 133.7428092956543 " stroke-dasharray="3,9,7" stroke-linejoin="round" stroke-linecap="round" stroke-width="3" stroke="#0000ff" fill="none"></path><path d="M115.02437114715576 161.48079681396484A45 45 -45 0 1 190.02437114715576 126.48079681396484 " stroke-dasharray="2,7,5" stroke-linejoin="round" stroke-linecap="round" stroke-width="3" stroke="#0000ff" fill="none"></path><ellipse rx="5" ry="9" cx="105" cy="174" fill="url(#SvgjsPattern1007)" transform="matrix(0.8191520442889918,0.573576436351046,-0.573576436351046,0.8191520442889918,118.79133527473788,-28.757981523144394)" stroke="none"></ellipse><ellipse rx="5" ry="9" cx="125" cy="119" fill="url(#SvgjsPattern1007)" transform="matrix(1,0,0,1,0,0)" stroke="none"></ellipse><ellipse rx="5" ry="9" cx="215" cy="119" fill="url(#SvgjsPattern1007)" transform="matrix(-0.9271838545667873,0.37460659341591224,-0.37460659341591224,-0.9271838545667873,458.92271334835283,148.79446110902654)" stroke="none"></ellipse><ellipse rx="5" ry="9" cx="210" cy="204" fill="url(#SvgjsPattern1007)" transform="matrix(0.2923717047227367,-0.9563047559630354,0.9563047559630354,0.2923717047227367,-46.48422820823396,345.18017098879915)" stroke="none"></ellipse><ellipse rx="5" ry="9" cx="120" cy="214" fill="url(#SvgjsPattern1007)" transform="matrix(0.22495105434386492,0.9743700647852352,-0.9743700647852352,0.22495105434386492,301.5210673427766,48.93606659618467)" stroke="none"></ellipse><ellipse rx="4" ry="8" cx="184" cy="93" fill="#33ff55" transform="matrix(-0.8191520442889916,0.5735764363510464,-0.5735764363510464,-0.8191520442889916,388.0665847298218,63.64307583028368)" stroke="none"></ellipse><ellipse rx="4" ry="8" cx="99" cy="135" fill="#33ff55" transform="matrix(-0.08715574274765824,0.9961946980917455,-0.9961946980917455,-0.08715574274765824,242.1147027744038,48.14275015985106)" stroke="none"></ellipse><ellipse rx="4" ry="8" cx="182" cy="211" fill="#33ff55" transform="matrix(0.12186934340514768,-0.992546151641322,0.992546151641322,0.12186934340514768,-49.60745849605584,365.9289681402345)" stroke="none"></ellipse><ellipse rx="4" ry="8" cx="219" cy="177" fill="#33ff55" transform="matrix(0.9743700647852352,0.224951054343865,-0.224951054343865,0.9743700647852352,45.42929243089759,-44.72778236829305)" stroke="none"></ellipse><ellipse rx="10" ry="14" cx="220" cy="154" fill="#ffff00" transform="matrix(0.9205048534524404,0.3907311284892737,-0.3907311284892737,0.9205048534524404,77.66152602781128,-73.71859569931604)" stroke="none"></ellipse><ellipse rx="2" ry="5" cx="120" cy="189" fill="#ccddff" transform="matrix(0.25881904510252113,-0.9659258262890682,0.9659258262890682,0.25881904510252113,-93.61826658093642,255.9942996303117)" stroke="none"></ellipse><ellipse rx="2" ry="5" cx="202" cy="130" fill="#ccddff" transform="matrix(0.5446390350150272,0.8386705679454239,-0.8386705679454239,0.5446390350150272,201.01008875986963,-110.21452927692917)" stroke="none"></ellipse></svg>