<svg xmlns="http://www.w3.org/2000/svg" version="1.1" xmlns:xlink="http://www.w3.org/1999/xlink" xmlns:svgjs="http://svgjs.com/svgjs" width="320" height="320"><defs><radialGradient id="SvgjsRadialGradient1032"><stop stop-color="#cc2200" offset="0.1"></stop><stop stop-color="#44eeaa" offset="0.5"></stop><stop stop-color="#cc2200" offset="0.1"></stop><stop stop-color="#44eeaa" offset="0.5"></stop><stop stop-color="#444444" offset="0.9"></stop></radialGradient><pattern x="0" y="0" width="10" height="10" patternUnits="userSpaceOnUse" id="SvgjsPattern1033"><rect width="10" height="10" fill="#ff3333"></rect><rect width="10" height="2" x="5" y="5" fill="#ffffff"></rect><rect width="7" height="2" x="0" y="0" fill="#ffffff"></rect></pattern></defs><polygon points="158,10 171,28 180,45 188,59 203,48 205,68 223,58 218,83 263,50 238,91 266,83 288,85 279,105 269,122 261,135 278,143 261,155 279,166 255,174 306,196 258,195 279,215 288,235 266,237 246,237 231,236 233,255 214,247 213,268 194,251 201,306 178,264 171,292 158,310 145,292 136,275 128,261 113,272 111,252 93,262 98,237 53,270 78,229 50,237 28,235 37,215 47,198 55,185 38,177 55,165 37,154 61,146 10,124 58,125 37,105 28,85 50,83 70,83 85,84 83,65 102,73 103,52 122,69 115,14 138,56 145,28 158,10" fill="url(#SvgjsRadialGradient1032)" stroke-linejoin="round" stroke-linecap="round" stroke-width="3" stroke="#77eeff"></polygon><ellipse rx="30" ry="30" cx="158" cy="160" fill="#ff5566" stroke-linejoin="round" stroke-linecap="round" stroke-width="3" stroke="#77eeff"></ellipse><path d="M123 155.76974868774414A35 35 -45 0 1 183 135.76974868774414 " stroke-dasharray="5,3,9" stroke-linejoin="round" stroke-linecap="round" stroke-width="3" stroke="#0000ff" fill="none"></path><path d="M118.17549316585064 163.7428092956543A40 40 -45 0 1 188.17549316585064 133.7428092956543 " stroke-dasharray="3,9,7" stroke-linejoin="round" stroke-linecap="round" stroke-width="3" stroke="#0000ff" fill="none"></path><path d="M113.02437114715576 161.48079681396484A45 45 -45 0 1 188.02437114715576 126.48079681396484 " stroke-dasharray="2,7,5" stroke-linejoin="round" stroke-linecap="round" stroke-width="3" stroke="#0000ff" fill="none"></path><ellipse rx="5" ry="9" cx="103" cy="174" fill="url(#SvgjsPattern1033)" transform="matrix(0.8191520442889918,0.573576436351046,-0.573576436351046,0.8191520442889918,118.42963936331586,-27.6108286504423)" stroke="none"></ellipse><ellipse rx="5" ry="9" cx="123" cy="119" fill="url(#SvgjsPattern1033)" transform="matrix(1,0,0,1,0,0)" stroke="none"></ellipse><ellipse rx="5" ry="9" cx="213" cy="119" fill="url(#SvgjsPattern1033)" transform="matrix(-0.9271838545667873,0.37460659341591224,-0.37460659341591224,-0.9271838545667873,455.0683456392193,149.54367429585838)" stroke="none"></ellipse><ellipse rx="5" ry="9" cx="208" cy="204" fill="url(#SvgjsPattern1033)" transform="matrix(0.2923717047227367,-0.9563047559630354,0.9563047559630354,0.2923717047227367,-47.89948479878848,343.2675614768731)" stroke="none"></ellipse><ellipse rx="5" ry="9" cx="108" cy="124" fill="url(#SvgjsPattern1033)" transform="matrix(-0.992546151641322,-0.12186934340514775,0.12186934340514775,-0.992546151641322,200.08318579502446,260.2376118912799)" stroke="none"></ellipse><ellipse rx="5" ry="9" cx="118" cy="214" fill="url(#SvgjsPattern1033)" transform="matrix(0.22495105434386492,0.9743700647852352,-0.9743700647852352,0.22495105434386492,299.97096945146427,50.88480672575514)" stroke="none"></ellipse><ellipse rx="4" ry="8" cx="182" cy="93" fill="#33ff55" transform="matrix(-0.8191520442889916,0.5735764363510464,-0.5735764363510464,-0.8191520442889916,384.42828064124376,64.79022870298577)" stroke="none"></ellipse><ellipse rx="4" ry="8" cx="97" cy="135" fill="#33ff55" transform="matrix(-0.08715574274765824,0.9961946980917455,-0.9961946980917455,-0.08715574274765824,239.94039128890847,50.135139556034545)" stroke="none"></ellipse><ellipse rx="4" ry="8" cx="180" cy="211" fill="#33ff55" transform="matrix(0.12186934340514768,-0.992546151641322,0.992546151641322,0.12186934340514768,-51.36371980924554,363.9438758369518)" stroke="none"></ellipse><ellipse rx="4" ry="8" cx="217" cy="177" fill="#33ff55" transform="matrix(0.9743700647852352,0.224951054343865,-0.224951054343865,0.9743700647852352,45.37803256046806,-44.277880259605325)" stroke="none"></ellipse><ellipse rx="10" ry="14" cx="218" cy="154" fill="#ffff00" transform="matrix(0.9205048534524404,0.3907311284892737,-0.3907311284892737,0.9205048534524404,77.50253573471613,-72.93713344233748)" stroke="none"></ellipse><ellipse rx="2" ry="5" cx="118" cy="189" fill="#6666ff" transform="matrix(0.25881904510252113,-0.9659258262890682,0.9659258262890682,0.25881904510252113,-95.1006284907314,254.06244797773354)" stroke="none"></ellipse><ellipse rx="2" ry="5" cx="98" cy="155" fill="#6666ff" transform="matrix(0.08715574274765814,0.9961946980917455,-0.9961946980917455,0.08715574274765814,243.86891541495007,43.86377946112192)" stroke="none"></ellipse><ellipse rx="2" ry="5" cx="205" cy="103" fill="#6666ff" transform="matrix(-0.9659258262890682,0.258819045102521,-0.258819045102521,-0.9659258262890682,429.67315603481865,149.4324558617572)" stroke="none"></ellipse><ellipse rx="2" ry="5" cx="200" cy="130" fill="#6666ff" transform="matrix(0.5446390350150272,0.8386705679454239,-0.8386705679454239,0.5446390350150272,200.09936682989968,-108.53718814103831)" stroke="none"></ellipse></svg>