<svg xmlns="http://www.w3.org/2000/svg" version="1.1" xmlns:xlink="http://www.w3.org/1999/xlink" xmlns:svgjs="http://svgjs.com/svgjs" width="320" height="320"><defs><radialGradient id="SvgjsRadialGradient1000"><stop stop-color="#ffffff" offset="0.1"></stop><stop stop-color="#770002" offset="0.5"></stop><stop stop-color="#ffffff" offset="0.1"></stop><stop stop-color="#770002" offset="0.5"></stop><stop stop-color="#77ff00" offset="0.9"></stop></radialGradient><pattern x="0" y="0" width="10" height="10" patternUnits="userSpaceOnUse" id="SvgjsPattern1001"><rect width="10" height="10" fill="#ff3333"></rect><rect width="10" height="2" x="5" y="5" fill="#ffffff"></rect><rect width="7" height="2" x="0" y="0" fill="#ffffff"></rect></pattern></defs><path d="M157.02734375 67.0306396484375C162.82734375 55.630639648437494 179.22734375 8.630639648437494 186.02734375 10.0306396484375C192.82734375 11.430639648437506 183.42734374999998 64.83063964843751 191.02734375 74.0306396484375C198.62734375 83.2306396484375 218.02734375 52.2306396484375 224.02734375 56.0306396484375C230.02734375 59.8306396484375 209.42734375 89.4306396484375 221.02734375 93.0306396484375C232.62734375 96.6306396484375 278.22734375 68.0306396484375 282.02734375 74.0306396484375C285.82734375 80.0306396484375 241.22734375 111.2306396484375 240.02734375 123.0306396484375C238.82734375 134.8306396484375 274.62734375 126.2306396484375 276.02734375 133.0306396484375C277.42734375 139.8306396484375 241.42734375 146.4306396484375 247.02734375 157.0306396484375C252.62734375 167.6306396484375 305.42734375 179.2306396484375 304.02734375 186.0306396484375C302.62734375 192.8306396484375 249.22734375 183.43063964843748 240.02734375 191.0306396484375C230.82734375 198.6306396484375 261.82734375 218.0306396484375 258.02734375 224.0306396484375C254.22734375 230.0306396484375 224.62734375 209.4306396484375 221.02734375 221.0306396484375C217.42734375 232.6306396484375 246.02734375 278.2306396484375 240.02734375 282.0306396484375C234.02734375 285.8306396484375 202.82734375 241.2306396484375 191.02734375 240.0306396484375C179.22734375 238.8306396484375 187.82734375 274.6306396484375 181.02734375 276.0306396484375C174.22734375 277.4306396484375 167.62734375 241.4306396484375 157.02734375 247.0306396484375C146.42734375 252.6306396484375 134.82734375 305.4306396484375 128.02734375 304.0306396484375C121.22734374999999 302.6306396484375 130.62734375 249.2306396484375 123.02734375 240.0306396484375C115.42734375 230.8306396484375 96.02734375 261.8306396484375 90.02734375 258.0306396484375C84.02734375 254.2306396484375 104.62734375 224.6306396484375 93.02734375 221.0306396484375C81.42734375 217.4306396484375 35.82734375 246.0306396484375 32.02734375 240.0306396484375C28.22734374999999 234.0306396484375 72.82734375 202.8306396484375 74.02734375 191.0306396484375C75.22734375 179.2306396484375 39.427343750000006 187.8306396484375 38.02734375 181.0306396484375C36.627343749999994 174.2306396484375 72.62734375000001 167.6306396484375 67.02734375 157.0306396484375C61.427343750000006 146.4306396484375 8.627343749999994 134.8306396484375 10.02734375 128.0306396484375C11.427343750000006 121.23063964843749 64.82734375 130.6306396484375 74.02734375 123.0306396484375C83.22734375 115.4306396484375 52.22734375 96.0306396484375 56.02734375 90.0306396484375C59.82734375 84.0306396484375 89.42734375 104.6306396484375 93.02734375 93.0306396484375C96.62734375 81.4306396484375 68.02734375 35.8306396484375 74.02734375 32.0306396484375C80.02734375 28.23063964843749 111.22734375 72.8306396484375 123.02734375 74.0306396484375C134.82734375 75.2306396484375 126.22734375 39.430639648437506 133.02734375 38.0306396484375C139.82734375 36.630639648437494 152.22734375 61.2306396484375 157.02734375 67.0306396484375 " fill="url(#SvgjsRadialGradient1000)" stroke-linejoin="round" stroke-linecap="round" stroke-width="3" stroke="#ee77ff"></path><ellipse rx="30" ry="30" cx="157" cy="157" fill="#ff5566" stroke-linejoin="round" stroke-linecap="round" stroke-width="3" stroke="#ee77ff"></ellipse><path d="M122 152.76974868774414A35 35 -45 0 1 182 132.76974868774414 " stroke-dasharray="5,3,9" stroke-linejoin="round" stroke-linecap="round" stroke-width="3" stroke="#0000ff" fill="none"></path><path d="M117.17549316585064 160.7428092956543A40 40 -45 0 1 187.17549316585064 130.7428092956543 " stroke-dasharray="3,9,7" stroke-linejoin="round" stroke-linecap="round" stroke-width="3" stroke="#0000ff" fill="none"></path><path d="M112.02437114715576 158.48079681396484A45 45 -45 0 1 187.02437114715576 123.48079681396484 " stroke-dasharray="2,7,5" stroke-linejoin="round" stroke-linecap="round" stroke-width="3" stroke="#0000ff" fill="none"></path><ellipse rx="5" ry="9" cx="102" cy="171" fill="url(#SvgjsPattern1001)" transform="matrix(0.8191520442889918,0.573576436351046,-0.573576436351046,0.8191520442889918,116.5280620985517,-27.579796081224288)" stroke="none"></ellipse><ellipse rx="5" ry="9" cx="122" cy="116" fill="url(#SvgjsPattern1001)" transform="matrix(1,0,0,1,0,0)" stroke="none"></ellipse><ellipse rx="5" ry="9" cx="212" cy="116" fill="url(#SvgjsPattern1001)" transform="matrix(-0.9271838545667873,0.37460659341591224,-0.37460659341591224,-0.9271838545667873,452.0173420044047,144.13672932557392)" stroke="none"></ellipse><ellipse rx="5" ry="9" cx="207" cy="201" fill="url(#SvgjsPattern1001)" transform="matrix(0.2923717047227367,-0.9563047559630354,0.9563047559630354,0.2923717047227367,-45.738198826176614,340.18837183507827)" stroke="none"></ellipse><ellipse rx="5" ry="9" cx="117" cy="211" fill="url(#SvgjsPattern1001)" transform="matrix(0.22495105434386492,0.9743700647852352,-0.9743700647852352,0.22495105434386492,296.2728103114524,49.534029953571974)" stroke="none"></ellipse><ellipse rx="4" ry="8" cx="181" cy="90" fill="#33ff55" transform="matrix(-0.8191520442889916,0.5735764363510464,-0.5735764363510464,-0.8191520442889916,380.8883992879016,59.90634900646985)" stroke="none"></ellipse><ellipse rx="4" ry="8" cx="96" cy="132" fill="#33ff55" transform="matrix(-0.08715574274765824,0.9961946980917455,-0.9961946980917455,-0.08715574274765824,235.8646514518856,47.86986702588331)" stroke="none"></ellipse><ellipse rx="4" ry="8" cx="179" cy="208" fill="#33ff55" transform="matrix(0.12186934340514768,-0.992546151641322,0.992546151641322,0.12186934340514768,-49.264212010916424,360.3169377155259)" stroke="none"></ellipse><ellipse rx="4" ry="8" cx="216" cy="174" fill="#33ff55" transform="matrix(0.9743700647852352,0.224951054343865,-0.224951054343865,0.9743700647852352,44.67754946222169,-44.12981901090578)" stroke="none"></ellipse><ellipse rx="10" ry="14" cx="217" cy="151" fill="#ffff00" transform="matrix(0.9205048534524404,0.3907311284892737,-0.3907311284892737,0.9205048534524404,76.25084720270078,-72.78488775349086)" stroke="none"></ellipse><ellipse rx="2" ry="5" cx="117" cy="186" fill="#ccddff" transform="matrix(0.25881904510252113,-0.9659258262890682,0.9659258262890682,0.25881904510252113,-92.94403196676166,250.87297928675204)" stroke="none"></ellipse><ellipse rx="2" ry="5" cx="199" cy="127" fill="#ccddff" transform="matrix(0.5446390350150272,0.8386705679454239,-0.8386705679454239,0.5446390350150272,197.12799416107842,-109.06460046804781)" stroke="none"></ellipse></svg>
